# Blender 3.6.9
# www.blender.org
mtllib toricelli bucket-s.mtl
o Circle
v 1.337284 3.539786 -0.082396
v 1.337284 3.555861 -0.080813
v 1.337284 3.571318 -0.076124
v 1.337284 3.585563 -0.068510
v 1.337284 3.598049 -0.058263
v 1.337284 3.608296 -0.045777
v 1.337284 3.615910 -0.031532
v 1.337284 3.620599 -0.016075
v 1.337284 3.622182 -0.000000
v 1.337284 3.620599 0.016074
v 1.337284 3.615910 0.031531
v 1.337284 3.608296 0.045776
v 1.337284 3.598049 0.058262
v 1.337284 3.585563 0.068509
v 1.337284 3.571318 0.076124
v 1.337284 3.555861 0.080812
v 1.337284 3.539786 0.082396
v 1.337284 3.523712 0.080812
v 1.337284 3.508255 0.076124
v 1.337284 3.494010 0.068509
v 1.337284 3.481524 0.058262
v 1.337284 3.471277 0.045776
v 1.337284 3.463663 0.031531
v 1.337284 3.458974 0.016074
v 1.337284 3.457391 -0.000000
v 1.337284 3.458974 -0.016075
v 1.337284 3.463663 -0.031532
v 1.337284 3.471277 -0.045777
v 1.337284 3.481524 -0.058263
v 1.337284 3.494010 -0.068510
v 1.337284 3.508255 -0.076124
v 1.337284 3.523712 -0.080813
v 1.353104 3.539786 -0.056679
v 1.353104 3.550844 -0.055590
v 1.353104 3.561476 -0.052365
v 1.353104 3.571275 -0.047127
v 1.353104 3.579864 -0.040078
v 1.353104 3.586913 -0.031489
v 1.353104 3.592151 -0.021690
v 1.353104 3.595376 -0.011058
v 1.353104 3.596465 -0.000000
v 1.353104 3.595376 0.011057
v 1.353104 3.592151 0.021690
v 1.353104 3.586913 0.031489
v 1.353104 3.579864 0.040078
v 1.353104 3.571275 0.047127
v 1.353104 3.561476 0.052364
v 1.353104 3.550844 0.055590
v 1.353104 3.539786 0.056679
v 1.353104 3.528729 0.055590
v 1.353104 3.518096 0.052364
v 1.353104 3.508297 0.047127
v 1.353104 3.499708 0.040078
v 1.353104 3.492660 0.031489
v 1.353104 3.487422 0.021690
v 1.353104 3.484197 0.011057
v 1.353104 3.483108 -0.000000
v 1.353104 3.484197 -0.011058
v 1.353104 3.487422 -0.021690
v 1.353104 3.492660 -0.031489
v 1.353104 3.499708 -0.040078
v 1.353104 3.508297 -0.047127
v 1.353104 3.518096 -0.052365
v 1.353104 3.528729 -0.055590
v 1.353104 3.555861 -0.080813
v 1.353104 3.539786 -0.082396
v 1.353104 3.571318 -0.076124
v 1.353104 3.585563 -0.068510
v 1.353104 3.598049 -0.058263
v 1.353104 3.608296 -0.045777
v 1.353104 3.615910 -0.031532
v 1.353104 3.620599 -0.016075
v 1.353104 3.622182 -0.000000
v 1.353104 3.620599 0.016074
v 1.353104 3.615910 0.031531
v 1.353104 3.608296 0.045776
v 1.353104 3.598049 0.058262
v 1.353104 3.585563 0.068509
v 1.353104 3.571318 0.076124
v 1.353104 3.555861 0.080812
v 1.353104 3.539786 0.082396
v 1.353104 3.523712 0.080812
v 1.353104 3.508255 0.076124
v 1.353104 3.494010 0.068509
v 1.353104 3.481524 0.058262
v 1.353104 3.471277 0.045776
v 1.353104 3.463663 0.031531
v 1.353104 3.458974 0.016074
v 1.353104 3.457391 -0.000000
v 1.353104 3.458974 -0.016075
v 1.353104 3.463663 -0.031532
v 1.353104 3.471277 -0.045777
v 1.353104 3.481524 -0.058263
v 1.353104 3.494010 -0.068510
v 1.353104 3.508255 -0.076124
v 1.353104 3.523712 -0.080813
v 1.414120 3.539786 -0.042380
v 1.414120 3.548054 -0.041565
v 1.414120 3.556004 -0.039154
v 1.414120 3.563331 -0.035237
v 1.414120 3.569753 -0.029967
v 1.414120 3.575024 -0.023545
v 1.414120 3.578940 -0.016218
v 1.414120 3.581352 -0.008268
v 1.414120 3.582166 -0.000000
v 1.414120 3.581352 0.008268
v 1.414120 3.578940 0.016218
v 1.414120 3.575024 0.023545
v 1.414120 3.569753 0.029967
v 1.414120 3.563331 0.035237
v 1.414120 3.556004 0.039153
v 1.414120 3.548054 0.041565
v 1.414120 3.539786 0.042379
v 1.414120 3.531518 0.041565
v 1.414120 3.523568 0.039153
v 1.414120 3.516242 0.035237
v 1.414120 3.509820 0.029967
v 1.414120 3.504549 0.023545
v 1.414120 3.500633 0.016218
v 1.414120 3.498221 0.008268
v 1.414120 3.497407 -0.000000
v 1.414120 3.498221 -0.008268
v 1.414120 3.500633 -0.016218
v 1.414120 3.504549 -0.023545
v 1.414120 3.509820 -0.029967
v 1.414120 3.516242 -0.035237
v 1.414120 3.523568 -0.039154
v 1.414120 3.531518 -0.041565
v 1.414120 3.550844 -0.055590
v 1.414120 3.539786 -0.056679
v 1.414120 3.561476 -0.052365
v 1.414120 3.571275 -0.047127
v 1.414120 3.579864 -0.040078
v 1.414120 3.586913 -0.031489
v 1.414120 3.592151 -0.021690
v 1.414120 3.595376 -0.011058
v 1.414120 3.596465 -0.000000
v 1.414120 3.595376 0.011057
v 1.414120 3.592151 0.021690
v 1.414120 3.586913 0.031489
v 1.414120 3.579864 0.040078
v 1.414120 3.571275 0.047127
v 1.414120 3.561476 0.052364
v 1.414120 3.550844 0.055590
v 1.414120 3.539786 0.056679
v 1.414120 3.528729 0.055590
v 1.414120 3.518096 0.052364
v 1.414120 3.508297 0.047127
v 1.414120 3.499708 0.040078
v 1.414120 3.492660 0.031489
v 1.414120 3.487422 0.021690
v 1.414120 3.484197 0.011057
v 1.414120 3.483108 -0.000000
v 1.414120 3.484197 -0.011058
v 1.414120 3.487422 -0.021690
v 1.414120 3.492660 -0.031489
v 1.414120 3.499708 -0.040078
v 1.414120 3.508297 -0.047127
v 1.414120 3.518096 -0.052365
v 1.414120 3.528729 -0.055590
v 1.396515 3.539786 -0.042380
v 1.396515 3.548054 -0.041565
v 1.396515 3.556004 -0.039154
v 1.396515 3.563331 -0.035237
v 1.396515 3.569753 -0.029967
v 1.396515 3.575024 -0.023545
v 1.396515 3.578940 -0.016218
v 1.396515 3.581352 -0.008268
v 1.396515 3.582166 -0.000000
v 1.396515 3.581352 0.008268
v 1.396515 3.578940 0.016218
v 1.396515 3.575024 0.023545
v 1.396515 3.569753 0.029967
v 1.396515 3.563331 0.035237
v 1.396515 3.556004 0.039153
v 1.396515 3.548054 0.041565
v 1.396515 3.539786 0.042379
v 1.396515 3.531518 0.041565
v 1.396515 3.523568 0.039153
v 1.396515 3.516242 0.035237
v 1.396515 3.509820 0.029967
v 1.396515 3.504549 0.023545
v 1.396515 3.500633 0.016218
v 1.396515 3.498221 0.008268
v 1.396515 3.497407 -0.000000
v 1.396515 3.498221 -0.008268
v 1.396515 3.500633 -0.016218
v 1.396515 3.504549 -0.023545
v 1.396515 3.509820 -0.029967
v 1.396515 3.516242 -0.035237
v 1.396515 3.523568 -0.039154
v 1.396515 3.531518 -0.041565
v 0.988657 3.569786 -0.051962
v 0.988657 3.591748 -0.030000
v 0.988657 3.599786 -0.000000
v 0.988657 3.591748 0.030000
v 0.988657 3.569786 0.051961
v 0.988657 3.539786 0.060000
v 0.988657 3.509786 0.051961
v 0.988657 3.487825 0.030000
v 0.988657 3.479786 -0.000000
v 0.988657 3.487825 -0.030000
v 0.988657 3.509786 -0.051962
v 0.988657 3.539786 -0.060000
v 1.337284 3.569786 -0.051962
v 1.337284 3.591748 -0.030000
v 1.337284 3.599786 -0.000000
v 1.337284 3.591748 0.030000
v 1.337284 3.569786 0.051961
v 1.337284 3.539786 0.060000
v 1.337284 3.509786 0.051961
v 1.337284 3.487825 0.030000
v 1.337284 3.479786 -0.000000
v 1.337284 3.487825 -0.030000
v 1.337284 3.509786 -0.051962
v 1.337284 3.539786 -0.060000
vn -1.0000 -0.0000 -0.0000
vn -0.0000 0.2903 0.9569
vn -0.0000 -0.0980 0.9952
vn -0.0000 0.6344 -0.7730
vn -0.0000 -0.2903 -0.9569
vn -0.0000 -0.2903 0.9569
vn -0.0000 0.7730 -0.6344
vn -0.0000 -0.0980 -0.9952
vn -0.0000 -0.4714 0.8819
vn -0.0000 0.8819 -0.4714
vn -0.0000 -0.6344 0.7730
vn -0.0000 0.9569 -0.2903
vn -0.0000 -0.7730 0.6344
vn -0.0000 0.9952 -0.0980
vn -0.0000 -0.8819 0.4714
vn -0.0000 0.9952 0.0980
vn -0.0000 -0.9569 0.2903
vn -0.0000 0.9569 0.2903
vn -0.0000 -0.9952 0.0980
vn -0.0000 0.8819 0.4714
vn -0.0000 -0.9952 -0.0980
vn -0.0000 0.7730 0.6344
vn -0.0000 -0.9569 -0.2903
vn -0.0000 0.6344 0.7730
vn -0.0000 -0.8819 -0.4714
vn -0.0000 0.4714 0.8819
vn -0.0000 0.0980 -0.9952
vn -0.0000 -0.7730 -0.6344
vn -0.0000 0.2903 -0.9569
vn -0.0000 -0.6344 -0.7730
vn -0.0000 0.0980 0.9952
vn -0.0000 0.4714 -0.8819
vn -0.0000 -0.4714 -0.8819
vn 1.0000 -0.0000 -0.0000
vn -0.0000 0.5000 -0.8660
vn -0.0000 -0.0000 -1.0000
vn -0.0000 0.8660 -0.5000
vn -0.0000 1.0000 -0.0000
vn -0.0000 0.8660 0.5000
vn -0.0000 0.5000 0.8660
vn -0.0000 -0.0000 1.0000
vn -0.0000 -0.5000 0.8660
vn -0.0000 -0.8660 0.5000
vn -0.0000 -1.0000 -0.0000
vn -0.0000 -0.8660 -0.5000
vn -0.0000 -0.5000 -0.8660
vt 0.000000 0.000000
vt 0.000000 1.000000
vt 1.000000 1.000000
vt 1.000000 0.916667
vt 0.000000 0.916667
vt 0.000000 0.083333
vt 1.000000 0.083333
vt 1.000000 0.000000
vt 0.000000 0.166667
vt 1.000000 0.166667
vt 0.000000 0.250000
vt 1.000000 0.250000
vt 0.000000 0.333333
vt 1.000000 0.333333
vt 0.000000 0.416667
vt 1.000000 0.416667
vt 0.000000 0.500000
vt 1.000000 0.500000
vt 0.000000 0.583333
vt 1.000000 0.583333
vt 0.000000 0.666667
vt 1.000000 0.666667
vt 0.000000 0.750000
vt 1.000000 0.750000
vt 0.000000 0.833333
vt 1.000000 0.833333
s 0
f 2/1/1 1/1/1 32/1/1 31/1/1 30/1/1 29/1/1 28/1/1 27/1/1 26/1/1 25/1/1 24/1/1 23/1/1 22/1/1 21/1/1 20/1/1 19/1/1 18/1/1 17/1/1 16/1/1 15/1/1 14/1/1 13/1/1 12/1/1 11/1/1 10/1/1 9/1/1 8/1/1 7/1/1 6/1/1 5/1/1 4/1/1 3/1/1
f 47/1/2 48/1/2 144/1/2 143/1/2
f 17/1/3 18/1/3 82/1/3 81/1/3
f 4/1/4 5/1/4 69/1/4 68/1/4
f 31/1/5 32/1/5 96/1/5 95/1/5
f 18/1/6 19/1/6 83/1/6 82/1/6
f 5/1/7 6/1/7 70/1/7 69/1/7
f 32/1/8 1/1/8 66/1/8 96/1/8
f 19/1/9 20/1/9 84/1/9 83/1/9
f 6/1/10 7/1/10 71/1/10 70/1/10
f 20/1/11 21/1/11 85/1/11 84/1/11
f 7/1/12 8/1/12 72/1/12 71/1/12
f 21/1/13 22/1/13 86/1/13 85/1/13
f 8/1/14 9/1/14 73/1/14 72/1/14
f 22/1/15 23/1/15 87/1/15 86/1/15
f 9/1/16 10/1/16 74/1/16 73/1/16
f 23/1/17 24/1/17 88/1/17 87/1/17
f 10/1/18 11/1/18 75/1/18 74/1/18
f 24/1/19 25/1/19 89/1/19 88/1/19
f 11/1/20 12/1/20 76/1/20 75/1/20
f 25/1/21 26/1/21 90/1/21 89/1/21
f 12/1/22 13/1/22 77/1/22 76/1/22
f 26/1/23 27/1/23 91/1/23 90/1/23
f 13/1/24 14/1/24 78/1/24 77/1/24
f 27/1/25 28/1/25 92/1/25 91/1/25
f 14/1/26 15/1/26 79/1/26 78/1/26
f 1/1/27 2/1/27 65/1/27 66/1/27
f 28/1/28 29/1/28 93/1/28 92/1/28
f 15/1/2 16/1/2 80/1/2 79/1/2
f 2/1/29 3/1/29 67/1/29 65/1/29
f 29/1/30 30/1/30 94/1/30 93/1/30
f 16/1/31 17/1/31 81/1/31 80/1/31
f 3/1/32 4/1/32 68/1/32 67/1/32
f 30/1/33 31/1/33 95/1/33 94/1/33
f 34/1/34 33/1/34 66/1/34 65/1/34
f 35/1/34 34/1/34 65/1/34 67/1/34
f 36/1/34 35/1/34 67/1/34 68/1/34
f 37/1/34 36/1/34 68/1/34 69/1/34
f 38/1/34 37/1/34 69/1/34 70/1/34
f 39/1/34 38/1/34 70/1/34 71/1/34
f 40/1/34 39/1/34 71/1/34 72/1/34
f 41/1/34 40/1/34 72/1/34 73/1/34
f 42/1/34 41/1/34 73/1/34 74/1/34
f 43/1/34 42/1/34 74/1/34 75/1/34
f 44/1/34 43/1/34 75/1/34 76/1/34
f 45/1/34 44/1/34 76/1/34 77/1/34
f 46/1/34 45/1/34 77/1/34 78/1/34
f 47/1/34 46/1/34 78/1/34 79/1/34
f 48/1/34 47/1/34 79/1/34 80/1/34
f 49/1/34 48/1/34 80/1/34 81/1/34
f 50/1/34 49/1/34 81/1/34 82/1/34
f 51/1/34 50/1/34 82/1/34 83/1/34
f 52/1/34 51/1/34 83/1/34 84/1/34
f 53/1/34 52/1/34 84/1/34 85/1/34
f 54/1/34 53/1/34 85/1/34 86/1/34
f 55/1/34 54/1/34 86/1/34 87/1/34
f 56/1/34 55/1/34 87/1/34 88/1/34
f 57/1/34 56/1/34 88/1/34 89/1/34
f 58/1/34 57/1/34 89/1/34 90/1/34
f 59/1/34 58/1/34 90/1/34 91/1/34
f 60/1/34 59/1/34 91/1/34 92/1/34
f 61/1/34 60/1/34 92/1/34 93/1/34
f 62/1/34 61/1/34 93/1/34 94/1/34
f 63/1/34 62/1/34 94/1/34 95/1/34
f 64/1/34 63/1/34 95/1/34 96/1/34
f 33/1/34 64/1/34 96/1/34 66/1/34
f 117/1/7 118/1/7 182/1/7 181/1/7
f 34/1/29 35/1/29 131/1/29 129/1/29
f 61/1/30 62/1/30 158/1/30 157/1/30
f 48/1/31 49/1/31 145/1/31 144/1/31
f 35/1/32 36/1/32 132/1/32 131/1/32
f 62/1/33 63/1/33 159/1/33 158/1/33
f 49/1/3 50/1/3 146/1/3 145/1/3
f 36/1/4 37/1/4 133/1/4 132/1/4
f 63/1/5 64/1/5 160/1/5 159/1/5
f 50/1/6 51/1/6 147/1/6 146/1/6
f 37/1/7 38/1/7 134/1/7 133/1/7
f 64/1/8 33/1/8 130/1/8 160/1/8
f 51/1/9 52/1/9 148/1/9 147/1/9
f 38/1/10 39/1/10 135/1/10 134/1/10
f 52/1/11 53/1/11 149/1/11 148/1/11
f 39/1/12 40/1/12 136/1/12 135/1/12
f 53/1/13 54/1/13 150/1/13 149/1/13
f 40/1/14 41/1/14 137/1/14 136/1/14
f 54/1/15 55/1/15 151/1/15 150/1/15
f 41/1/16 42/1/16 138/1/16 137/1/16
f 55/1/17 56/1/17 152/1/17 151/1/17
f 42/1/18 43/1/18 139/1/18 138/1/18
f 56/1/19 57/1/19 153/1/19 152/1/19
f 43/1/20 44/1/20 140/1/20 139/1/20
f 57/1/21 58/1/21 154/1/21 153/1/21
f 44/1/22 45/1/22 141/1/22 140/1/22
f 58/1/23 59/1/23 155/1/23 154/1/23
f 45/1/24 46/1/24 142/1/24 141/1/24
f 59/1/25 60/1/25 156/1/25 155/1/25
f 46/1/26 47/1/26 143/1/26 142/1/26
f 33/1/27 34/1/27 129/1/27 130/1/27
f 60/1/28 61/1/28 157/1/28 156/1/28
f 98/1/34 97/1/34 130/1/34 129/1/34
f 99/1/34 98/1/34 129/1/34 131/1/34
f 100/1/34 99/1/34 131/1/34 132/1/34
f 101/1/34 100/1/34 132/1/34 133/1/34
f 102/1/34 101/1/34 133/1/34 134/1/34
f 103/1/34 102/1/34 134/1/34 135/1/34
f 104/1/34 103/1/34 135/1/34 136/1/34
f 105/1/34 104/1/34 136/1/34 137/1/34
f 106/1/34 105/1/34 137/1/34 138/1/34
f 107/1/34 106/1/34 138/1/34 139/1/34
f 108/1/34 107/1/34 139/1/34 140/1/34
f 109/1/34 108/1/34 140/1/34 141/1/34
f 110/1/34 109/1/34 141/1/34 142/1/34
f 111/1/34 110/1/34 142/1/34 143/1/34
f 112/1/34 111/1/34 143/1/34 144/1/34
f 113/1/34 112/1/34 144/1/34 145/1/34
f 114/1/34 113/1/34 145/1/34 146/1/34
f 115/1/34 114/1/34 146/1/34 147/1/34
f 116/1/34 115/1/34 147/1/34 148/1/34
f 117/1/34 116/1/34 148/1/34 149/1/34
f 118/1/34 117/1/34 149/1/34 150/1/34
f 119/1/34 118/1/34 150/1/34 151/1/34
f 120/1/34 119/1/34 151/1/34 152/1/34
f 121/1/34 120/1/34 152/1/34 153/1/34
f 122/1/34 121/1/34 153/1/34 154/1/34
f 123/1/34 122/1/34 154/1/34 155/1/34
f 124/1/34 123/1/34 155/1/34 156/1/34
f 125/1/34 124/1/34 156/1/34 157/1/34
f 126/1/34 125/1/34 157/1/34 158/1/34
f 127/1/34 126/1/34 158/1/34 159/1/34
f 128/1/34 127/1/34 159/1/34 160/1/34
f 97/1/34 128/1/34 160/1/34 130/1/34
f 162/1/34 163/1/34 164/1/34 165/1/34 166/1/34 167/1/34 168/1/34 169/1/34 170/1/34 171/1/34 172/1/34 173/1/34 174/1/34 175/1/34 176/1/34 177/1/34 178/1/34 179/1/34 180/1/34 181/1/34 182/1/34 183/1/34 184/1/34 185/1/34 186/1/34 187/1/34 188/1/34 189/1/34 190/1/34 191/1/34 192/1/34 161/1/34
f 104/1/19 105/1/19 169/1/19 168/1/19
f 118/1/10 119/1/10 183/1/10 182/1/10
f 105/1/21 106/1/21 170/1/21 169/1/21
f 119/1/12 120/1/12 184/1/12 183/1/12
f 106/1/23 107/1/23 171/1/23 170/1/23
f 120/1/14 121/1/14 185/1/14 184/1/14
f 107/1/25 108/1/25 172/1/25 171/1/25
f 121/1/16 122/1/16 186/1/16 185/1/16
f 108/1/28 109/1/28 173/1/28 172/1/28
f 122/1/18 123/1/18 187/1/18 186/1/18
f 109/1/30 110/1/30 174/1/30 173/1/30
f 123/1/20 124/1/20 188/1/20 187/1/20
f 110/1/33 111/1/33 175/1/33 174/1/33
f 97/1/3 98/1/3 162/1/3 161/1/3
f 124/1/22 125/1/22 189/1/22 188/1/22
f 111/1/5 112/1/5 176/1/5 175/1/5
f 98/1/6 99/1/6 163/1/6 162/1/6
f 125/1/24 126/1/24 190/1/24 189/1/24
f 112/1/8 113/1/8 177/1/8 176/1/8
f 99/1/9 100/1/9 164/1/9 163/1/9
f 126/1/26 127/1/26 191/1/26 190/1/26
f 113/1/27 114/1/27 178/1/27 177/1/27
f 100/1/11 101/1/11 165/1/11 164/1/11
f 127/1/2 128/1/2 192/1/2 191/1/2
f 114/1/29 115/1/29 179/1/29 178/1/29
f 101/1/13 102/1/13 166/1/13 165/1/13
f 128/1/31 97/1/31 161/1/31 192/1/31
f 115/1/32 116/1/32 180/1/32 179/1/32
f 102/1/15 103/1/15 167/1/15 166/1/15
f 116/1/4 117/1/4 181/1/4 180/1/4
f 103/1/17 104/1/17 168/1/17 167/1/17
s 1
f 193/2/35 205/3/35 216/4/36 204/5/36
f 194/6/37 206/7/37 205/8/35 193/1/35
f 195/9/38 207/10/38 206/7/37 194/6/37
f 196/11/39 208/12/39 207/10/38 195/9/38
f 197/13/40 209/14/40 208/12/39 196/11/39
f 198/15/41 210/16/41 209/14/40 197/13/40
f 199/17/42 211/18/42 210/16/41 198/15/41
f 200/19/43 212/20/43 211/18/42 199/17/42
f 201/21/44 213/22/44 212/20/43 200/19/43
f 202/23/45 214/24/45 213/22/44 201/21/44
f 203/25/46 215/26/46 214/24/45 202/23/45
f 204/5/36 216/4/36 215/26/46 203/25/46
